HIERARCHY
ROOT Pelvis
{
	OFFSET 0.000000 0.000000 0.000000
	CHANNELS 6 Xposition Yposition Zposition Xrotation Yrotation Zrotation
	JOINT LeftUpLeg_virtual
	{
		OFFSET 0.000000 0.000000 0.000000
		CHANNELS 3 Xrotation Yrotation Zrotation
		JOINT LeftUpLeg
		{
			OFFSET 18.735201 -5.666702 -4.541200
			CHANNELS 3 Xrotation Yrotation Zrotation
			JOINT LeftLeg
			{
				OFFSET -0.021200 -31.938179 0.493100
				CHANNELS 3 Xrotation Yrotation Zrotation
				JOINT LeftFoot
				{
					OFFSET 0.021200 -31.938179 -4.336299
					CHANNELS 3 Xrotation Yrotation Zrotation
					JOINT LeftToeBase
					{
						OFFSET 0.943001 -26.722000 15.023500
						CHANNELS 3 Xrotation Yrotation Zrotation
						End Site
						{
							OFFSET 0 0 0
						}
					}
				}
			}
		}
	}
	JOINT RightUpLeg_virtual
	{
		OFFSET 0.000000 0.000000 0.000000
		CHANNELS 3 Xrotation Yrotation Zrotation
		JOINT RightUpLeg
		{
			OFFSET -18.735201 -5.666702 -4.541200
			CHANNELS 3 Xrotation Yrotation Zrotation
			JOINT RightLeg
			{
				OFFSET 0.018946 -31.938133 0.493100
				CHANNELS 3 Xrotation Yrotation Zrotation
				JOINT RightFoot
				{
					OFFSET -0.018946 -31.938126 -4.336299
					CHANNELS 3 Xrotation Yrotation Zrotation
					JOINT RightToeBase
					{
						OFFSET -0.943001 -26.722004 15.023500
						CHANNELS 3 Xrotation Yrotation Zrotation
						End Site
						{
							OFFSET 0 0 0
						}
					}
				}
			}
		}
	}
	JOINT Hips_virtual
	{
		OFFSET 0.000000 0.000000 0.000000
		CHANNELS 3 Xrotation Yrotation Zrotation
		JOINT Hips
		{
			OFFSET -0.000000 -0.000000 -0.000000
			CHANNELS 3 Xrotation Yrotation Zrotation
			JOINT Spine
			{
				OFFSET 0.000000 10.199997 -0.299500
				CHANNELS 3 Xrotation Yrotation Zrotation
				JOINT Spine1
				{
					OFFSET 0.000000 11.900002 -1.516600
					CHANNELS 3 Xrotation Yrotation Zrotation
					JOINT Spine2
					{
						OFFSET 0.000000 13.600006 -2.842500
						CHANNELS 3 Xrotation Yrotation Zrotation
						JOINT Neck_virtual
						{
							OFFSET 0.000000 0.000000 0.000000
							CHANNELS 3 Xrotation Yrotation Zrotation
							JOINT Neck
							{
								OFFSET 0.000000 9.624100 -2.890100
								CHANNELS 3 Xrotation Yrotation Zrotation
								JOINT Head
								{
									OFFSET 0.000000 14.068802 -1.351900
									CHANNELS 3 Xrotation Yrotation Zrotation
									End Site
									{
										OFFSET 0 0 0
									}
								}
							}
						}
						JOINT LeftShoulder_virtual
						{
							OFFSET 0.000000 0.000000 0.000000
							CHANNELS 3 Xrotation Yrotation Zrotation
							JOINT LeftShoulder
							{
								OFFSET 15.263000 10.923401 -0.547700
								CHANNELS 3 Xrotation Yrotation Zrotation
								JOINT LeftArm
								{
									OFFSET 25.438599 -2.830597 -13.032500
									CHANNELS 3 Xrotation Yrotation Zrotation
									JOINT LeftForeArm
									{
										OFFSET 29.960503 0.000000 0.000000
										CHANNELS 3 Xrotation Yrotation Zrotation
										JOINT LeftHand
										{
											OFFSET 27.849251 0.000000 0.000000
											CHANNELS 3 Xrotation Yrotation Zrotation
											End Site
											{
												OFFSET 0 0 0
											}
										}
									}
								}
							}
						}
						JOINT RightShoulder_virtual
						{
							OFFSET 0.000000 0.000000 0.000000
							CHANNELS 3 Xrotation Yrotation Zrotation
							JOINT RightShoulder
							{
								OFFSET -15.263000 10.923401 -0.547700
								CHANNELS 3 Xrotation Yrotation Zrotation
								JOINT RightArm
								{
									OFFSET -25.438599 -2.830597 -13.032500
									CHANNELS 3 Xrotation Yrotation Zrotation
									JOINT RightForeArm
									{
										OFFSET -29.960503 0.000000 0.000000
										CHANNELS 3 Xrotation Yrotation Zrotation
										JOINT RightHand
										{
											OFFSET -27.849251 0.000000 0.000000
											CHANNELS 3 Xrotation Yrotation Zrotation
											End Site
											{
												OFFSET 0 0 0
											}
										}
									}
								}
							}
						}
					}
				}
			}
		}
	}
}
MOTION
Frames: 4
Frame Time: 0.03333333
0.842378 56.678551 -3.666065 0.000000 0.000000 0.000000 -179.712304 -5.093305 171.401562 -91.201276 -23.994065 14.024406 124.407169 1.253502 2.318505 -27.471127 5.444582 -17.239601 0.000000 0.000000 0.000000 -179.712304 -5.093305 171.401562 -58.692758 17.340594 -29.500970 109.244682 5.909330 -0.114412 -28.903513 -10.560050 31.060654 0.000000 0.000000 0.000000 -179.712304 -5.093305 171.401562 0.000000 0.000000 0.000000 4.016811 3.140495 -2.598127 8.138434 6.853473 -4.615301 0.000000 0.000000 0.000000 8.138446 6.853468 -4.615304 -0.483327 5.708644 1.191353 0.000000 0.000000 0.000000 8.138446 6.853468 -4.615304 0.991952 -15.521555 -11.873515 2.947335 -1.004909 -32.103778 39.921920 -32.872573 -2.089478 0.000000 0.000000 0.000000 8.138446 6.853468 -4.615304 3.297401 -18.314888 12.160844 12.768042 -13.236291 60.187067 30.213116 39.380152 -4.024317 0.000000 0.000000 0.000000 
0.837887 56.678444 -3.668903 0.000000 0.000000 0.000000 -179.743067 -5.108287 171.385989 -91.254401 -23.999007 13.995396 124.408098 1.261870 2.319310 -27.459923 5.440251 -17.233460 0.000000 0.000000 0.000000 -179.743067 -5.108287 171.385989 -58.695866 17.323725 -29.501124 109.234327 5.895035 -0.111101 -28.911504 -10.562823 31.059995 0.000000 0.000000 0.000000 -179.743067 -5.108287 171.385989 0.000000 0.000000 0.000000 4.005259 3.139948 -2.596494 8.115209 6.854068 -4.611593 0.000000 0.000000 0.000000 8.115218 6.854064 -4.611579 -0.477484 5.708263 1.192677 0.000000 0.000000 0.000000 8.115218 6.854064 -4.611579 0.983007 -15.541322 -11.895344 2.965895 -0.975592 -32.060894 39.955575 -32.910587 -2.104589 0.000000 0.000000 0.000000 8.115218 6.854064 -4.611579 3.299768 -18.345002 12.110439 12.768934 -13.198104 60.241381 30.218253 39.297613 -4.016846 0.000000 0.000000 0.000000 
0.838234 56.678108 -3.673779 0.000000 0.000000 0.000000 -179.768216 -5.104115 171.375457 -91.278846 -24.003329 14.011009 124.411800 1.249877 2.318501 -27.466984 5.434990 -17.221659 0.000000 0.000000 0.000000 -179.768216 -5.104115 171.375457 -58.713939 17.315651 -29.480159 109.235154 5.879287 -0.107522 -28.926114 -10.565423 31.055658 0.000000 0.000000 0.000000 -179.768216 -5.104115 171.375457 0.000000 0.000000 0.000000 3.994399 3.139626 -2.598664 8.093580 6.853826 -4.615530 0.000000 0.000000 0.000000 8.093578 6.853825 -4.615529 -0.485726 5.707120 1.195947 0.000000 0.000000 0.000000 8.093578 6.853825 -4.615529 0.984359 -15.557359 -11.893243 2.993944 -0.936739 -32.027758 39.996976 -32.956018 -2.104877 0.000000 0.000000 0.000000 8.093578 6.853825 -4.615529 3.302540 -18.350061 12.097415 12.769790 -13.185346 60.268449 30.241325 39.257052 -4.029729 0.000000 0.000000 0.000000 
0.836887 56.673630 -3.678646 0.000000 0.000000 0.000000 -179.794129 -5.112733 171.359269 -91.330120 -24.008774 14.020011 124.421895 1.229790 2.317382 -27.463832 5.420243 -17.194836 0.000000 0.000000 0.000000 -179.794129 -5.112733 171.359269 -58.726622 17.288448 -29.483225 109.238289 5.873210 -0.106209 -28.945614 -10.565642 31.044781 0.000000 0.000000 0.000000 -179.794129 -5.112733 171.359269 0.000000 0.000000 -0.000001 3.985209 3.139082 -2.597360 8.075135 6.853915 -4.612894 0.000000 0.000000 0.000000 8.075134 6.853917 -4.612895 -0.483239 5.706976 1.193242 0.000000 0.000000 0.000000 8.075134 6.853917 -4.612895 0.985486 -15.558947 -11.899326 3.003092 -0.913854 -31.997066 40.016548 -32.998215 -2.121965 0.000000 0.000000 0.000000 8.075134 6.853917 -4.612895 3.306608 -18.371395 12.069627 12.769769 -13.150470 60.289206 30.289939 39.220278 -4.043916 0.000000 0.000000 0.000000 
